HIERARCHY
ROOT Hips
{
  OFFSET -331.093 83.8371 -317.828
  CHANNELS 6 Xposition Yposition Zposition Zrotation Xrotation Yrotation
  JOINT LeftUpLeg
  {
    OFFSET 8.64259 1.95398 -2.38835
    CHANNELS 3 Zrotation Xrotation Yrotation
    JOINT LeftLeg
    {
      OFFSET 43.7702 0 0
      CHANNELS 3 Zrotation Xrotation Yrotation
      JOINT LeftFoot
      {
        OFFSET 40.6238 0 0
        CHANNELS 3 Zrotation Xrotation Yrotation
        JOINT LeftToeBase
        {
          OFFSET 12.7242 0 0
          CHANNELS 3 Zrotation Xrotation Yrotation
          End Site
          {
            OFFSET 0 0 0
          }
        }
      }
    }
  }
  JOINT RightUpLeg
  {
    OFFSET -8.2249 1.95398 -2.59336
    CHANNELS 3 Zrotation Xrotation Yrotation
    JOINT RightLeg
    {
      OFFSET 43.5653 0 0
      CHANNELS 3 Zrotation Xrotation Yrotation
      JOINT RightFoot
      {
        OFFSET 40.6238 0 0
        CHANNELS 3 Zrotation Xrotation Yrotation
        JOINT RightToeBase
        {
          OFFSET 12.7242 0 0
          CHANNELS 3 Zrotation Xrotation Yrotation
          End Site
          {
            OFFSET 0 0 0
          }
        }
      }
    }
  }
  JOINT Spine
  {
    OFFSET 0.165834 0.87714 6.61349
    CHANNELS 3 Zrotation Xrotation Yrotation
    JOINT Spine1
    {
      OFFSET 7.38963 1.71661e-005 0
      CHANNELS 3 Zrotation Xrotation Yrotation
      JOINT Spine2
      {
        OFFSET 11.9445 1.14441e-005 0
        CHANNELS 3 Zrotation Xrotation Yrotation
        JOINT Spine3
        {
          OFFSET 14.7254 4.19617e-005 0
          CHANNELS 3 Zrotation Xrotation Yrotation
          JOINT Spine4
          {
            OFFSET 10.9679 0 0
            CHANNELS 3 Zrotation Xrotation Yrotation
            JOINT RightShoulder
            {
              OFFSET 2.46616 -1.6653 3.69651
              CHANNELS 3 Zrotation Xrotation Yrotation
              JOINT RightArm
              {
                OFFSET 13.0012 0 0
                CHANNELS 3 Zrotation Xrotation Yrotation
                JOINT RightForeArm
                {
                  OFFSET 28.7848 1.62311e-005 0
                  CHANNELS 3 Zrotation Xrotation Yrotation
                  JOINT RightHand
                  {
                    OFFSET 26.5688 1.62095e-005 0
                    CHANNELS 3 Zrotation Xrotation Yrotation
                    End Site
                    {
                      OFFSET 0 0 0
                    }
                  }
                }
              }
            }
            JOINT LeftShoulder
            {
              OFFSET 2.38034 -1.29275 -3.7523
              CHANNELS 3 Zrotation Xrotation Yrotation
              JOINT LeftArm
              {
                OFFSET 16.3182 6.07031e-005 0
                CHANNELS 3 Zrotation Xrotation Yrotation
                JOINT LeftForeArm
                {
                  OFFSET 27.0901 0 0
                  CHANNELS 3 Zrotation Xrotation Yrotation
                  JOINT LeftHand
                  {
                    OFFSET 24.5451 1.51738e-005 0
                    CHANNELS 3 Zrotation Xrotation Yrotation
                    End Site
                    {
                      OFFSET 0 0 0
                    }
                  }
                }
              }
            }
            JOINT Neck
            {
              OFFSET 5.0226 -0.0266342 0
              CHANNELS 3 Zrotation Xrotation Yrotation
              JOINT Head
              {
                OFFSET 6.69364 2.86102e-005 0
                CHANNELS 3 Zrotation Xrotation Yrotation
                End Site
                {
                  OFFSET 0 0 0
                }
              }
            }
          }
        }
      }
    }
  }
}
MOTION
Frames:	15
Frame Time:	0.0416667
-45.6825 11.1502 8.86222 1.72734 -1.95597 77.1461 -177.308 9.75972 88.5033 -23.6688 29.1902 -0.665176 58.0635 -1.20682 0.842728 78.332 55.633 14.2577 178.069 11.069 89.9316 -32.4919 -18.5697 -7.25997 61.937 0.125792 0.000146003 49.4264 2.85082 10.4896 1.95569 6.47808 -92.3741 13.9624 2.71747 -5.12617 2.28384 2.48956 -5.24043 -20.2187 4.13129 -4.07478 -0.206067 4.1313 -4.07478 100.776 -18.7939 -85.5446 -73.6115 44.512 85.352 -9.69485 -19.7105 -141.382 -42.1298 -1.73622 -0.613265 -174.646 -56.8574 -17.3781 115.85 -38.1659 86.7796 14.0714 19.8677 -146.563 43.949 8.09444 14.6181 -5.78324 -31.193 21.2554 32.3402 -38.6542 -23.0102 
-45.6832 11.1385 8.90276 1.76066 -1.89259 77.2618 -177.242 9.90074 88.688 -23.8948 29.0717 -0.653908 58.052 -1.426 0.402851 80.1064 56.2115 12.8814 178 10.9263 89.9952 -32.1288 -18.6006 -7.10168 61.7621 0.171088 0.0421283 48.6054 3.11366 11.5851 1.95899 6.4753 -92.3817 13.9634 2.72028 -5.14133 2.2847 2.49169 -5.2557 -20.2172 4.1385 -4.08842 -0.204564 4.13853 -4.08842 100.802 -18.7439 -85.4847 -73.6971 44.5276 85.2145 -10.3819 -19.5735 -141.157 -42.4585 -1.63291 -0.972873 -174.525 -56.9142 -17.2367 115.453 -38.204 86.4213 14.0442 19.7858 -146.533 43.3273 7.86861 14.3823 -5.57982 -31.6541 21.0626 31.5398 -38.9683 -23.2016 
-45.7139 11.145 8.91548 1.82563 -1.86345 77.2203 -177.285 9.74315 88.663 -23.6966 29.1041 -0.618654 57.8057 -1.53311 0.49185 79.5849 56.3655 13.5975 177.89 10.8715 89.9226 -32.1651 -18.477 -7.09228 61.4581 0.382938 0.163976 49.9105 3.50821 12.4538 1.95935 6.4769 -92.3758 13.9609 2.72386 -5.13086 2.28223 2.49572 -5.24539 -20.2198 4.13878 -4.07733 -0.207157 4.13878 -4.07734 100.789 -18.3207 -85.556 -71.618 44.2601 83.6272 -11.3754 -20.2564 -141.127 -46.5584 -2.01007 -0.318048 -174.061 -57.061 -16.7312 114.069 -38.3973 85.6763 14.1202 19.3127 -146.551 44.7668 7.8963 13.8102 -5.23893 -31.9149 21.9453 28.0283 -39.0533 -24.7493 
-45.7429 11.1457 8.92577 1.97505 -1.81235 77.2636 -177.293 9.70759 88.7312 -23.8661 28.9378 -0.562426 57.8333 -1.6404 0.193644 80.3108 57.2199 13.6104 178.019 10.6855 90.0019 -32.1519 -18.4282 -7.15317 61.574 0.278124 0.10725 49.2768 3.366 12.1989 1.95317 6.48239 -92.3905 13.9497 2.7047 -5.15711 2.27091 2.47544 -5.27078 -20.23 4.12838 -4.10818 -0.217429 4.1284 -4.10819 100.816 -18.0488 -85.5127 -71.4149 44.0641 83.5444 -10.5219 -20.3408 -140.843 -43.0504 -2.36632 1.12118 -174.28 -57.0001 -16.9651 114.547 -38.1843 85.8127 13.8791 19.725 -146.518 44.3753 7.94018 14.0786 -4.5256 -32.4758 21.9532 26.142 -39.3993 -25.2973 
-45.7408 11.1365 8.9473 1.92711 -1.77005 77.3123 -177.282 9.79907 88.8187 -23.9374 28.9507 -0.545369 58.068 -1.62563 -0.169294 83.3808 58.0065 11.0761 178.07 10.9718 90.0836 -32.3842 -18.4758 -7.16576 61.5527 0.298738 0.118812 48.8804 3.05692 11.316 1.95287 6.45503 -92.3908 14.0044 2.70251 -5.16008 2.32557 2.47308 -5.27363 -20.1753 4.12717 -4.11168 -0.162651 4.12716 -4.11169 100.885 -18.5758 -85.2935 -72.0772 43.8054 84.5932 -10.7899 -20.4825 -141.861 -46.5438 -1.88179 -0.671513 -174.341 -56.9997 -17.0207 114.435 -38.1287 85.5472 14.3362 19.1568 -146.497 44.5348 7.8582 13.8245 -5.48034 -33.5413 20.6629 26.0385 -39.9899 -24.7074 
-45.7639 11.1429 8.96202 1.89689 -1.76365 77.2429 -177.358 9.91669 88.7461 -24.1916 29.048 -0.510922 58.4916 -1.22995 0.0832516 76.5836 59.3354 19.6597 178.056 10.6688 90.0223 -32.1306 -18.422 -7.23429 61.3959 0.434991 0.191294 50.2523 3.26014 11.5659 1.95391 6.44969 -92.3839 14.0153 2.7077 -5.14771 2.33653 2.47885 -5.26151 -20.1648 4.12843 -4.0983 -0.152113 4.12842 -4.0983 101.006 -19.2197 -84.9198 -72.6496 44.0101 84.8797 -11.1781 -20.1381 -142.513 -45.506 -2.03603 -0.156 -174.232 -57.0167 -16.9121 114.143 -38.2351 85.5768 13.9395 19.4995 -146.581 44.2137 7.6775 13.5517 -6.29425 -33.8858 19.6165 26.2991 -40.0749 -24.2601 
-45.7371 11.1448 8.96827 1.96834 -1.83327 77.2596 -177.309 9.98584 88.7836 -24.5333 29.0948 -0.524155 58.1055 -1.5197 0.134297 81.5697 57.9949 12.9682 178.155 10.6765 90.0296 -32.0985 -18.453 -7.25573 61.4033 0.353911 0.160579 49.9533 3.49047 12.3897 1.95467 6.46386 -92.387 13.9869 2.70836 -5.15249 2.30812 2.47929 -5.2663 -20.1931 4.13048 -4.10266 -0.180416 4.13049 -4.10264 102.113 -16.9059 -82.3081 -62.6495 46.7461 79.8439 -13.2536 -15.4164 -144.541 -45.1197 -2.49511 1.04208 -174.768 -56.8583 -17.4882 115.443 -38.1835 86.3737 14.1537 19.6305 -146.584 44.243 7.7343 13.6683 -6.45185 -34.445 20.4315 24.761 -40.6958 -25.8487 
-45.7341 11.1482 8.96627 1.95372 -1.80469 77.3193 -177.348 9.9577 88.886 -24.4049 29.0581 -0.455041 58.0862 -1.77593 -0.498432 80.4762 57.7081 13.8808 178.118 10.437 90.0314 -31.8252 -18.5517 -7.20118 61.4174 0.338169 0.152202 50.0666 3.51452 12.4302 1.93072 6.46985 -92.3908 13.9735 2.65941 -5.15268 2.29464 2.4304 -5.26437 -20.2054 4.08386 -4.11758 -0.192736 4.08386 -4.1176 101.862 -17.585 -82.9082 -65.8998 46.8743 81.9552 -12.5101 -17.418 -143.855 -46.6512 -1.98402 -0.511579 -175.277 -56.6802 -18.0503 116.034 -38.0689 86.7723 13.7318 20.3102 -146.601 44.478 7.68044 13.4467 -7.31269 -34.6884 20.2304 25.0992 -40.9977 -26.402 
-45.7547 11.1607 8.96565 1.95384 -1.75916 77.2781 -177.386 10.1588 88.8657 -24.6707 29.5032 -0.448911 57.9919 -1.76739 -0.296389 79.5326 59.0002 16.1059 178.213 10.8192 90.0332 -32.2407 -18.4764 -7.29647 61.3987 0.347621 0.159749 51.0081 3.50123 12.0988 1.91596 6.49079 -92.3829 13.931 2.6351 -5.13165 2.25219 2.40701 -5.24229 -20.2478 4.05436 -4.10482 -0.235161 4.05435 -4.10482 101.894 -17.9781 -82.8138 -68.3267 47.5755 83.9001 -10.2653 -20.616 -143.769 -45.3683 -2.32424 0.601751 -175.723 -56.5289 -18.5378 117.318 -38.0906 87.5965 14.235 20.1091 -146.675 44.1511 7.60896 13.4218 -8.49865 -34.8284 19.2326 26.6842 -41.1295 -25.8805 
-45.6985 11.1546 8.9694 1.88644 -1.6854 77.316 -177.55 10.1017 88.8534 -24.4816 29.6941 -0.311424 57.7748 -1.88078 -0.217782 77.5609 56.8314 16.2397 178.237 10.3864 90.0437 -31.6278 -18.4241 -7.26308 61.2563 0.401817 0.199295 50.9414 3.51306 12.1493 1.99553 6.38152 -92.4942 14.153 2.73235 -5.37913 2.47331 2.49334 -5.49376 -20.0225 4.22131 -4.31197 -0.00985148 4.2213 -4.31199 101.785 -16.2657 -83.1552 -67.9577 46.0854 84.4854 -11.1212 -19.6267 -144.307 -44.9285 -2.0566 -0.101124 -178.842 -55.7066 -21.773 116.753 -37.8505 86.5024 14.35 19.7434 -146.498 43.9043 7.53365 13.3535 -9.93407 -36.3912 22.4028 24.785 -43.1082 -29.8525 
-45.704 11.1535 8.99194 1.89122 -1.84946 77.2715 -177.431 9.96869 88.8642 -24.3337 29.9244 -0.420756 57.9342 -1.6155 0.178786 75.3126 54.8929 16.909 178.279 10.6596 90.0488 -32.0854 -18.6565 -7.37102 61.3603 0.392983 0.182521 50.302 3.21128 11.4024 2.089 6.37053 -92.5919 14.1789 2.86904 -5.59495 2.49849 2.62043 -5.71532 -19.9948 4.41637 -4.47706 0.0178899 4.41637 -4.47707 101.873 -14.7992 -83.0005 -68.6052 45.5916 85.656 -11.2129 -20.2025 -144.325 -43.9586 -1.98261 -0.206409 178.702 -54.8974 -24.3616 117.191 -38.1186 86.5003 14.6658 19.3871 -146.428 43.9267 7.49393 13.2533 -9.46222 -37.2235 26.0751 21.7688 -44.272 -33.7745 
-45.6968 11.1634 8.79188 1.86268 -1.70345 77.2112 -177.675 10.0901 88.6291 -24.4863 29.5436 -0.282238 57.8069 -1.78392 -0.0586159 79.8114 56.3842 13.3604 178.084 10.9572 89.7939 -32.2873 -18.8506 -7.28516 61.4438 0.338653 0.15127 50.3971 3.42459 12.0458 2.08329 6.38432 -92.633 14.1506 2.83838 -5.67169 2.46988 2.58644 -5.79064 -20.0204 4.41012 -4.55963 -0.00777587 4.41011 -4.55964 101.891 -14.3323 -82.9672 -69.2796 45.8088 86.4216 -10.8783 -20.7159 -144.207 -43.1173 -1.92415 -0.269259 177.614 -54.4205 -25.5528 118.039 -38.4036 87.3518 14.3902 19.9499 -146.394 43.2266 7.28017 13.051 -8.9037 -37.3198 27.9158 20.0566 -44.4891 -35.6968 
-45.6871 11.1594 8.72827 1.90001 -1.59752 77.2182 -177.754 10.0919 88.5869 -24.5602 29.4912 -0.22094 58.0557 -1.66354 -0.145373 78.9139 58.6318 16.4384 177.95 10.7304 89.6919 -31.9878 -18.9315 -7.18416 61.4555 0.305871 0.136749 50.5741 3.57194 12.4521 2.05296 6.37569 -92.5799 14.1667 2.80382 -5.56131 2.48638 2.55676 -5.67889 -20.0062 4.34408 -4.46455 0.00646004 4.34409 -4.46457 101.902 -15.3069 -82.8969 -70.6259 45.8935 87.0292 -11.6244 -20.873 -144.348 -44.9811 -1.75105 -0.962672 178.907 -54.9406 -24.1598 118.306 -38.4435 88.092 14.8223 19.6805 -146.498 42.5012 7.12375 12.9888 -9.98875 -37.0425 25.3119 21.9881 -44.025 -33.7337 
-45.6886 11.1731 8.73503 1.89798 -1.69634 77.1815 -177.681 10.1059 88.5959 -24.5541 29.6067 -0.289536 57.9935 -1.67114 -0.0238491 77.5787 57.2432 16.6027 177.981 10.8329 89.6697 -32.0751 -18.9547 -7.22546 61.1801 0.456201 0.232376 51.1355 3.39961 11.7524 2.07004 6.38946 -92.5959 14.1399 2.83066 -5.59582 2.45953 2.58205 -5.7145 -20.0328 4.38 -4.48945 -0.020105 4.38002 -4.48943 101.973 -14.8649 -82.7247 -69.6173 46.0621 86.4525 -11.3239 -20.6711 -144.193 -43.2807 -1.85938 -0.482287 178.936 -54.9072 -24.152 118.247 -38.6166 88.6133 14.7331 19.8207 -146.544 42.5955 7.07135 12.8246 -9.9618 -37.1656 25.8545 22.1421 -44.2985 -34.1595 
-45.7093 11.1606 8.70202 1.92939 -1.6627 77.1659 -177.676 10.0848 88.5752 -24.5374 29.7591 -0.312051 58.1697 -1.4925 0.0905301 69.962 54.3848 22.6128 177.987 10.8651 89.6669 -32.1645 -19.0212 -7.27357 61.2993 0.425687 0.205157 52.0617 2.93163 10.063 2.08039 6.39833 -92.6272 14.1224 2.83634 -5.65835 2.44172 2.58498 -5.7772 -20.0489 4.40415 -4.54748 -0.0362957 4.40417 -4.54749 101.907 -14.2988 -82.9245 -69.6474 45.6309 86.6326 -11.1629 -20.9353 -143.924 -43.9215 -1.81917 -0.650046 178.357 -54.7255 -24.7506 117.739 -38.8349 88.1562 14.3633 20.0663 -146.378 42.7174 7.15122 12.9628 -9.7296 -37.3659 26.8406 22.0516 -44.6683 -34.7216 
